# xmcd
#
# Track frame offsets:
# 150
# 22940
# 49615
# 78700
# 108800
# 135392
# 173780
# 192237
# 225340
# 256452
# 300202
#
# Disc length: 4581 seconds
#
#
# Revision: 0
# Processed by: cddbd v1.5.1PL0 Copyright (c) Steve Scherf et al.
# Submitted via: FreeRIP 2.942 
#
DISCID=7811e30b
DTITLE=Eric Clapton - Orchestra Night [CD1]
DYEAR=1900
DGENRE=Classic
TTITLE0=Intro
TTITLE1=Crossroads
TTITLE2=Bell Bottom Blues
TTITLE3=Lay Down Sally
TTITLE4=Holy Mother
TTITLE5=I Shot The Sheriff
TTITLE6=Hard times
TTITLE7=Can't Find My Way Home
TTITLE8=Edge Of Darkness
TTITLE9=Old Love
TTITLE10=Wonderful Tonight
EXTD=
EXTT0=
EXTT1=
EXTT2=
EXTT3=
EXTT4=
EXTT5=
EXTT6=
EXTT7=
EXTT8=
EXTT9=
EXTT10=
PLAYORDER=
